<?xml version="1.0" encoding="UTF-8"?><svg id="Layer_2" xmlns="http://www.w3.org/2000/svg" viewBox="0 0 638.28 638.28"><g id="Layer_1-2"><rect x="7.5" y="7.5" width="623.28" height="623.28" rx="103.88" ry="103.88" style="stroke:#f33; stroke-miterlimit:10; stroke-width:15px;"/><path d="m253.21,74.96c9.97,5.76,13.39,18.51,7.63,28.48l-4.92,5.58,8.83,32.94,2.97-.21c2.23.28,4.45,1,6.52,2.19,8.28,4.78,11.12,15.37,6.34,23.66-4.78,8.28-15.37,11.12-23.66,6.34-8.28-4.78-11.12-15.37-6.34-23.66l1.91-2.17-9.28-34.62-3,.21c-2.69-.33-5.35-1.2-7.85-2.64-2.49-1.44-4.58-3.32-6.21-5.48l-1.71-3.5-33.98,9.1-1.35,4c-4.78,8.28-15.37,11.12-23.66,6.34s-11.12-15.37-6.34-23.66c4.78-8.28,15.37-11.12,23.66-6.34,2.07,1.2,3.8,2.75,5.16,4.55l.81,1.66,33.94-9.09,2.04-6.07c5.76-9.97,18.51-13.39,28.48-7.63Z" style="fill:#f33; fill-rule:evenodd;"/><path d="m107.12,519.36c-5.6-10.06-1.99-22.76,8.07-28.36l7.09-2.26,9.33-32.8-2.66-1.35c-1.77-1.38-3.31-3.14-4.47-5.23-4.65-8.36-1.65-18.9,6.7-23.56,8.36-4.65,18.9-1.65,23.56,6.7,4.65,8.36,1.65,18.9-6.7,23.56l-2.75.88-9.81,34.47,2.68,1.36c2.14,1.67,3.98,3.78,5.38,6.29,1.4,2.51,2.23,5.19,2.52,7.89l-.33,3.88,33.83,9.62,3.21-2.74c8.36-4.65,18.9-1.65,23.56,6.7,4.65,8.36,1.65,18.9-6.7,23.56-8.36,4.65-18.9,1.65-23.56-6.7-1.16-2.09-1.85-4.31-2.09-6.55l.16-1.84-33.8-9.61-4.86,4.16c-10.06,5.6-22.76,1.99-28.36-8.07Z" style="fill:#f33; fill-rule:evenodd;"/><path d="m324.79,292.39c8.14,8.14,8.14,21.34,0,29.49l-6.2,4.12v34.1l2.92.57c2.09.85,4.04,2.11,5.73,3.8,6.76,6.76,6.76,17.73,0,24.49-6.76,6.76-17.73,6.76-24.49,0-6.76-6.76-6.76-17.73,0-24.49l2.41-1.6v-35.84l-2.95-.57c-2.51-1.02-4.86-2.54-6.9-4.58-2.04-2.04-3.56-4.39-4.58-6.9l-.74-3.82h-35.18l-2.33,3.52c-6.76,6.76-17.73,6.76-24.49,0-6.76-6.76-6.76-17.73,0-24.49,6.76-6.76,17.73-6.76,24.49,0,1.69,1.69,2.96,3.64,3.8,5.73l.35,1.81h35.14l3.54-5.33c8.14-8.14,21.34-8.14,29.49,0Z" style="fill:#f33; fill-rule:evenodd;"/><path d="m465.68,267.55c-11.54,0-20.9-9.46-20.9-21.12l1.48-7.39-24.17-24.43-2.47,1.69c-2.08.89-4.36,1.38-6.76,1.38-9.59,0-17.36-7.85-17.36-17.54s7.77-17.54,17.36-17.54,17.36,7.85,17.36,17.54l-.57,2.87,25.4,25.67,2.5-1.7c2.5-1.07,5.25-1.66,8.13-1.66s5.63.59,8.13,1.66l3.24,2.21,24.93-25.2-.84-4.19c0-9.69,7.77-17.54,17.36-17.54s17.36,7.85,17.36,17.54-7.77,17.54-17.36,17.54c-2.4,0-4.68-.49-6.76-1.38l-1.54-1.05-24.9,25.17,1.27,6.36c0,11.66-9.36,21.12-20.9,21.12Z" style="fill:#f33; fill-rule:evenodd;"/><path d="m447.73,425.07c10.82-3.93,22.79,1.65,26.72,12.47l1.11,7.36,30.9,14.43,1.75-2.41c1.65-1.53,3.62-2.77,5.87-3.58,8.99-3.27,18.93,1.37,22.19,10.36,3.27,8.99-1.37,18.93-10.36,22.19-8.99,3.27-18.93-1.37-22.19-10.36l-.43-2.86-32.48-15.16-1.77,2.43c-1.98,1.84-4.36,3.33-7.07,4.31-2.71.98-5.48,1.37-8.19,1.23l-3.78-.94-14.88,31.87,2.2,3.6c3.27,8.99-1.37,18.93-10.36,22.19-8.99,3.27-18.93-1.37-22.19-10.36-3.27-8.99,1.37-18.93,10.36-22.19,2.25-.82,4.55-1.14,6.8-1.02l1.79.45,14.86-31.84-3.33-5.46c-3.93-10.82,1.65-22.79,12.47-26.72Z" style="fill:#f33; fill-rule:evenodd;"/></g></svg>